<svg width="40" height="23" viewBox="0 0 40 23" fill="none" xmlns="http://www.w3.org/2000/svg">
<path fill-rule="evenodd" clip-rule="evenodd" d="M0 2H19V22H0V2Z" fill="black" fill-opacity="0.01"/>
<path fill-rule="evenodd" clip-rule="evenodd" d="M9.5 2.5C11.9609 2.5 13.9912 4.44678 14.4175 7H17.0879C18.188 7 18.998 7.89301 18.998 8.995V20.005C18.998 21.107 18.188 22 17.0879 22H1.98291C0.879883 22 0.0200195 21.107 0.0200195 20.005V8.995C0.0200195 7.89301 0.883789 7 1.98389 7H4.58252C5.00879 4.44678 7.03906 2.5 9.5 2.5ZM5.5 8H4.5H1.98291C1.4458 8 1.021 8.435 1.021 8.995V20.005C1.021 20.565 1.4458 21 1.98291 21H17.0869C17.605 21 17.9971 20.584 17.9971 20.005V8.995C17.9971 8.41501 17.6069 8 17.0869 8H14.5H13.5H5.5ZM5.59912 7H13.4009C12.9956 4.98969 11.394 3.5 9.5 3.5C7.60596 3.5 6.00439 4.98969 5.59912 7Z" fill="#9AB0B9"/>
<path d="M7.52227 14.5039L7.93242 10.8906H11.9168V12.0674H9.08965L8.91387 13.5957C9.24915 13.4167 9.6056 13.3271 9.9832 13.3271C10.6603 13.3271 11.1909 13.5371 11.575 13.957C11.9591 14.377 12.1512 14.9645 12.1512 15.7197C12.1512 16.1787 12.0535 16.5905 11.8582 16.9551C11.6661 17.3164 11.3895 17.598 11.0281 17.7998C10.6668 17.9984 10.2404 18.0977 9.74883 18.0977C9.31914 18.0977 8.92038 18.0114 8.55254 17.8389C8.1847 17.6631 7.89336 17.4173 7.67852 17.1016C7.46693 16.7858 7.35462 16.4261 7.3416 16.0225H8.73809C8.76738 16.3187 8.86992 16.5498 9.0457 16.7158C9.22474 16.8786 9.45749 16.96 9.74395 16.96C10.063 16.96 10.3087 16.846 10.4813 16.6182C10.6538 16.387 10.74 16.0615 10.74 15.6416C10.74 15.238 10.6408 14.9287 10.4422 14.7139C10.2436 14.499 9.96204 14.3916 9.59746 14.3916C9.26217 14.3916 8.99036 14.4795 8.78203 14.6553L8.64531 14.7822L7.52227 14.5039Z" fill="#9AB0B9"/>
<path fill-rule="evenodd" clip-rule="evenodd" d="M28.9897 0C28.4238 0 27.9849 0.447998 27.9849 1C27.9849 1.26608 28.0908 1.52121 28.2793 1.70889C28.4683 1.89658 28.7236 2.00134 28.9897 2L28.9868 5H24.9648C23.8628 5 23 5.89301 23 6.995V19.005C23 20.107 23.8628 21 24.9639 21H26.9839V22.001C26.9834 22.2664 27.0889 22.5212 27.2769 22.7087C27.4648 22.8962 27.7197 23.0011 27.9849 23C28.2505 23.0011 28.5054 22.8962 28.6938 22.7088C28.8818 22.5213 28.9873 22.2665 28.9868 22.001V21H33.9951V22.001C33.9946 22.2664 34.0996 22.5212 34.2876 22.7087C34.4756 22.8962 34.7305 23.0011 34.9961 23C35.2617 23.0011 35.5166 22.8962 35.7046 22.7088C35.8926 22.5213 35.998 22.2665 35.998 22.001V21H38.0869C39.188 21 40 20.107 40 19.005V6.995C40 5.89301 39.1899 5 38.0869 5H33.9951L33.9917 2C34.5439 2 34.9917 1.55228 34.9917 1C34.9917 0.447723 34.5439 0 33.9917 0H28.9897ZM32.9932 2H29.9878V5H32.9932V2ZM34.9951 20H27.9868V21L27.9839 22.001V20H24.9648C24.4248 20 24 19.566 24 19.005V6.995C24 6.435 24.4258 6 24.9648 6H38.0869C38.6079 6 39 6.41501 39 6.995V19.005C39 19.583 38.6069 20 38.0869 20H34.9951Z" fill="#9AB0B9"/>
<path d="M29.8689 16H28.4578V10.5605L26.7732 11.083V9.93555L29.7176 8.88086H29.8689V16ZM31.9934 12.5039L32.4035 8.89062H36.3879V10.0674H33.5607L33.385 11.5957C33.7202 11.4167 34.0767 11.3271 34.4543 11.3271C35.1314 11.3271 35.662 11.5371 36.0461 11.957C36.4302 12.377 36.6223 12.9645 36.6223 13.7197C36.6223 14.1787 36.5246 14.5905 36.3293 14.9551C36.1372 15.3164 35.8605 15.598 35.4992 15.7998C35.1379 15.9984 34.7115 16.0977 34.2199 16.0977C33.7902 16.0977 33.3915 16.0114 33.0236 15.8389C32.6558 15.6631 32.3645 15.4173 32.1496 15.1016C31.938 14.7858 31.8257 14.4261 31.8127 14.0225H33.2092C33.2385 14.3187 33.341 14.5498 33.5168 14.7158C33.6958 14.8786 33.9286 14.96 34.215 14.96C34.534 14.96 34.7798 14.846 34.9523 14.6182C35.1249 14.387 35.2111 14.0615 35.2111 13.6416C35.2111 13.238 35.1118 12.9287 34.9133 12.7139C34.7147 12.499 34.4331 12.3916 34.0686 12.3916C33.7333 12.3916 33.4615 12.4795 33.2531 12.6553L33.1164 12.7822L31.9934 12.5039Z" fill="#9AB0B9"/>
</svg>
