<svg width="40" height="23" viewBox="0 0 40 23" fill="none" xmlns="http://www.w3.org/2000/svg">
<path fill-rule="evenodd" clip-rule="evenodd" d="M0 2H19V22H0V2Z" fill="black" fill-opacity="0.01"/>
<path fill-rule="evenodd" clip-rule="evenodd" d="M9.5 2.5C11.9609 2.5 13.9912 4.44678 14.4175 7H17.0879C18.188 7 18.998 7.89301 18.998 8.995V20.005C18.998 21.107 18.188 22 17.0879 22H1.98291C0.879883 22 0.0200195 21.107 0.0200195 20.005V8.995C0.0200195 7.89301 0.883789 7 1.98389 7H4.58252C5.00879 4.44678 7.03906 2.5 9.5 2.5ZM5.5 8H4.5H1.98291C1.4458 8 1.021 8.435 1.021 8.995V20.005C1.021 20.565 1.4458 21 1.98291 21H17.0869C17.605 21 17.9971 20.584 17.9971 20.005V8.995C17.9971 8.41498 17.6069 8 17.0869 8H14.5H13.5H5.5ZM5.59912 7H13.4009C12.9956 4.98969 11.394 3.5 9.5 3.5C7.60596 3.5 6.00439 4.98969 5.59912 7Z" fill="#9AB0B9"/>
<path d="M7.52227 14.5039L7.93242 10.8906H11.9168V12.0674H9.08965L8.91387 13.5957C9.24915 13.4167 9.6056 13.3271 9.9832 13.3271C10.6603 13.3271 11.1909 13.5371 11.575 13.957C11.9591 14.377 12.1512 14.9645 12.1512 15.7197C12.1512 16.1787 12.0535 16.5905 11.8582 16.9551C11.6661 17.3164 11.3895 17.598 11.0281 17.7998C10.6668 17.9984 10.2404 18.0977 9.74883 18.0977C9.31914 18.0977 8.92038 18.0114 8.55254 17.8389C8.1847 17.6631 7.89336 17.4173 7.67852 17.1016C7.46693 16.7858 7.35462 16.4261 7.3416 16.0225H8.73809C8.76738 16.3187 8.86992 16.5498 9.0457 16.7158C9.22474 16.8786 9.45749 16.96 9.74395 16.96C10.063 16.96 10.3087 16.846 10.4813 16.6182C10.6538 16.387 10.74 16.0615 10.74 15.6416C10.74 15.238 10.6408 14.9287 10.4422 14.7139C10.2436 14.499 9.96204 14.3916 9.59746 14.3916C9.26217 14.3916 8.99036 14.4795 8.78203 14.6553L8.64531 14.7822L7.52227 14.5039Z" fill="#9AB0B9"/>
<path fill-rule="evenodd" clip-rule="evenodd" d="M28.9897 0C28.4238 0 27.9849 0.447998 27.9849 1C27.9849 1.12469 28.0083 1.24695 28.0522 1.36096C28.1025 1.49036 28.1792 1.60913 28.2793 1.70886C28.4683 1.89655 28.7236 2.00134 28.9897 2L28.9868 5H24.9648C23.8628 5 23 5.89301 23 6.995V19.005C23 20.107 23.8628 21 24.9639 21H26.9839V22.001C26.9839 22.0502 26.9873 22.099 26.9946 22.1471C27.0034 22.2084 27.0181 22.2686 27.0381 22.3268C27.0869 22.4693 27.168 22.6002 27.2769 22.7087C27.4648 22.8962 27.7197 23.001 27.9849 23C28.1143 23.0005 28.2407 22.9759 28.3584 22.9289C28.3813 22.9198 28.4038 22.9099 28.4263 22.8992C28.4478 22.8887 28.4688 22.8774 28.4897 22.8653C28.5181 22.849 28.5454 22.8313 28.5718 22.8123C28.6147 22.7813 28.6558 22.7467 28.6938 22.7087C28.8818 22.5212 28.9873 22.2665 28.9868 22.001V21H33.9951V22.001C33.9946 22.2665 34.0996 22.5212 34.2876 22.7087C34.4756 22.8962 34.7305 23.001 34.9961 23C35.2617 23.001 35.5166 22.8962 35.7046 22.7087C35.8926 22.5212 35.998 22.2665 35.998 22.001V21H38.0869C39.188 21 40 20.107 40 19.005V6.995C40 5.89301 39.1899 5 38.0869 5H33.9951L33.9917 2C34.5439 2 34.9917 1.55231 34.9917 1C34.9917 0.447693 34.5439 0 33.9917 0H28.9897ZM32.9932 2H29.9878V5H32.9932V2ZM34.9951 20H27.9868V21L27.9839 22.001V20H24.9648C24.4248 20 24 19.566 24 19.005V6.995C24 6.435 24.4258 6 24.9648 6H38.0869C38.6079 6 39 6.41498 39 6.995V19.005C39 19.583 38.6069 20 38.0869 20H34.9951Z" fill="#9AB0B9"/>
<path d="M29.8689 16H28.4578V10.5605L26.7732 11.083V9.93555L29.7176 8.88086H29.8689V16ZM36.6564 16H31.7834V15.0332L34.0832 12.582C34.399 12.237 34.6317 11.9359 34.7814 11.6787C34.9344 11.4215 35.0109 11.1774 35.0109 10.9463C35.0109 10.6305 34.9312 10.3831 34.7717 10.2041C34.6122 10.0218 34.3843 9.93066 34.0881 9.93066C33.7691 9.93066 33.5168 10.0413 33.3312 10.2627C33.149 10.4808 33.0578 10.7689 33.0578 11.127H31.6418C31.6418 10.694 31.7443 10.2985 31.9494 9.94043C32.1577 9.58236 32.4507 9.30241 32.8283 9.10059C33.2059 8.89551 33.634 8.79297 34.1125 8.79297C34.8449 8.79297 35.413 8.96875 35.8166 9.32031C36.2235 9.67188 36.427 10.1683 36.427 10.8096C36.427 11.1611 36.3358 11.5192 36.1535 11.8838C35.9712 12.2484 35.6587 12.6732 35.216 13.1582L33.5998 14.8623H36.6564V16Z" fill="#9AB0B9"/>
</svg>
