<svg width="16" height="10" viewBox="0 0 16 10" fill="none" xmlns="http://www.w3.org/2000/svg">
<path fill-rule="evenodd" clip-rule="evenodd" d="M6.28409 1.16403C6.32706 1.207 8.38663 5.44727 8.38663 5.44727L8.27823 5.41544C10.4838 6.15521 12.726 6.92975 13.5024 7.27271C13.5326 7.28525 14.2426 7.58545 14.7069 8.04965C15.1479 8.49103 15.1557 8.87564 15.0815 9.13068C14.8017 9.92356 13.4359 9.77704 12.2514 9.37546L9.69473 8.54022L4.60343 6.87702L1.1088 5.73456C1.03214 5.7096 0.977449 5.64081 0.970614 5.56104L0.591708 1.19144C0.58829 1.15485 0.595614 1.11905 0.611727 1.08774C0.623934 1.06394 0.641024 1.04273 0.662508 1.02573C0.712801 0.986422 0.779696 0.974947 0.841219 0.99515L1.12589 1.0839C1.18741 1.1041 1.23624 1.15335 1.25577 1.21555L3.09317 3.70786C3.09317 3.70786 4.16934 4.05561 5.63907 4.53922C5.63126 4.38907 5.62247 4.13111 5.61514 4.12995C5.61514 4.12995 5.496 1.11231 5.48136 0.819277C5.55118 0.857088 5.71427 0.922732 5.8754 0.987185C6.06925 1.06473 6.26065 1.14057 6.28409 1.16403Z" fill="#A0B0B9"/>
</svg>
