<svg width="40" height="23" viewBox="0 0 40 23" fill="none" xmlns="http://www.w3.org/2000/svg">
<path fill-rule="evenodd" clip-rule="evenodd" d="M0 2H19V22H0V2Z" fill="black" fill-opacity="0.01"/>
<path fill-rule="evenodd" clip-rule="evenodd" d="M9.5 2.5C11.9609 2.5 13.9912 4.44678 14.4175 7H17.0879C18.188 7 18.998 7.89301 18.998 8.995V20.005C18.998 21.107 18.188 22 17.0879 22H1.98291C0.879883 22 0.0200195 21.107 0.0200195 20.005V8.995C0.0200195 7.89301 0.883789 7 1.98389 7H4.58252C5.00879 4.44678 7.03906 2.5 9.5 2.5ZM5.5 8H4.5H1.98291C1.4458 8 1.021 8.435 1.021 8.995V20.005C1.021 20.565 1.4458 21 1.98291 21H17.0869C17.605 21 17.9971 20.584 17.9971 20.005V8.995C17.9971 8.41498 17.6069 8 17.0869 8H14.5H13.5H5.5ZM5.59912 7H13.4009C12.9956 4.98969 11.394 3.5 9.5 3.5C7.60596 3.5 6.00439 4.98969 5.59912 7Z" fill="#9AB0B9"/>
<path d="M7.52227 14.5039L7.93242 10.8906H11.9168V12.0674H9.08965L8.91387 13.5957C9.24915 13.4167 9.6056 13.3271 9.9832 13.3271C10.6603 13.3271 11.1909 13.5371 11.575 13.957C11.9591 14.377 12.1512 14.9645 12.1512 15.7197C12.1512 16.1787 12.0535 16.5905 11.8582 16.9551C11.6661 17.3164 11.3895 17.598 11.0281 17.7998C10.6668 17.9984 10.2404 18.0977 9.74883 18.0977C9.31914 18.0977 8.92038 18.0114 8.55254 17.8389C8.1847 17.6631 7.89336 17.4173 7.67852 17.1016C7.46693 16.7858 7.35462 16.4261 7.3416 16.0225H8.73809C8.76738 16.3187 8.86992 16.5498 9.0457 16.7158C9.22474 16.8786 9.45749 16.96 9.74395 16.96C10.063 16.96 10.3087 16.846 10.4813 16.6182C10.6538 16.387 10.74 16.0615 10.74 15.6416C10.74 15.238 10.6408 14.9287 10.4422 14.7139C10.2436 14.499 9.96204 14.3916 9.59746 14.3916C9.26217 14.3916 8.99036 14.4795 8.78203 14.6553L8.64531 14.7822L7.52227 14.5039Z" fill="#9AB0B9"/>
<path fill-rule="evenodd" clip-rule="evenodd" d="M28.9897 7.62771e-06C28.4248 7.62771e-06 27.9849 0.448006 27.9849 1.00001C27.9849 1.26612 28.0908 1.52119 28.2793 1.70887C28.4683 1.89655 28.7236 2.00135 28.9897 2.00001L28.9868 5.00001H24.9648C23.8628 5.00001 23 5.89301 23 6.995V19.005C23 20.107 23.8618 21 24.9648 21H26.9849V22C26.9849 22.557 27.4321 23 27.9849 23C28.542 23 28.9868 22.553 28.9868 22V21H33.9951V22C33.9951 22.1221 34.0171 22.2419 34.0591 22.3539C34.0757 22.3988 34.0957 22.4425 34.1191 22.4844C34.1328 22.5095 34.1479 22.5339 34.1641 22.5577C34.2002 22.6115 34.2417 22.662 34.2881 22.7084C34.4761 22.8961 34.7314 23.001 34.9971 23C35.5542 23 35.9971 22.553 35.9971 22V21H38.0869C39.188 21 40 20.107 40 19.005V6.995C40 5.89301 39.1899 5.00001 38.0869 5.00001H33.9951L33.9917 2.00001C34.5581 2.00001 34.9961 1.55201 34.9961 1.00001C34.9961 0.734077 34.8901 0.479134 34.7017 0.291512C34.5132 0.103828 34.2578 -0.00102997 33.9917 7.62771e-06H28.9897ZM32.9932 2.00001H29.9868V5.00001H32.9932V2.00001ZM34.9951 20H27.9868V21L27.9849 22V20H24.9648C24.4248 20 24 19.565 24 19.005V6.995C24 6.43501 24.4248 6.00001 24.9648 6.00001H38.0869C38.6079 6.00001 39 6.41499 39 6.995V19.005C39 19.583 38.6079 20 38.0879 20H34.9951Z" fill="#F34C3D"/>
<path d="M31.4402 14.6202L29.6022 16.4022C29.2352 16.7572 28.6423 16.7572 28.2752 16.4022C27.9082 16.0472 27.9082 15.4722 28.2752 15.1162L30.1133 13.3342L28.2752 11.5522C28.0996 11.3844 28.0001 11.1521 28.0001 10.9092C28.0001 10.6663 28.0996 10.4339 28.2752 10.2662C28.6464 9.91127 29.2311 9.91127 29.6022 10.2662L31.4402 12.0482L33.2783 10.2662C33.6494 9.91127 34.2341 9.91127 34.6052 10.2662C34.7807 10.4341 34.8799 10.6664 34.8799 10.9092C34.8799 11.152 34.7807 11.3843 34.6052 11.5522L32.7673 13.3342L34.6052 15.1162C34.7807 15.2841 34.8799 15.5164 34.8799 15.7592C34.8799 16.002 34.7807 16.2343 34.6052 16.4022C34.2341 16.7571 33.6494 16.7571 33.2783 16.4022L31.4402 14.6202Z" fill="#FF4C3E"/>
</svg>
