<svg width="40" height="23" viewBox="0 0 40 23" fill="none" xmlns="http://www.w3.org/2000/svg">
<path fill-rule="evenodd" clip-rule="evenodd" d="M13.9795 7H17.0679C18.168 7 18.978 7.89301 18.978 8.995V20.005C18.978 21.107 18.168 22 17.0679 22H1.96289C0.859863 22 0 21.107 0 20.005V8.995C0 7.89301 0.86377 7 1.96387 7H4.02051C4.24951 4.20538 6.38037 2 9 2C11.6196 2 13.7505 4.20538 13.9795 7ZM5.02441 7C5.24609 4.7417 6.95215 3 9 3C11.0479 3 12.7539 4.7417 12.9756 7H5.02441ZM1.96289 21H17.0669C17.585 21 17.9771 20.584 17.9771 20.005V8.995C17.9771 8.41498 17.5869 8 17.0669 8H1.96289C1.42578 8 1.00098 8.435 1.00098 8.995V20.005C1.00098 20.565 1.42578 21 1.96289 21Z" fill="#9AB0B9"/>
<path fill-rule="evenodd" clip-rule="evenodd" d="M28.9897 0C28.4238 0 27.9849 0.447998 27.9849 1C27.9849 1.26611 28.0908 1.52118 28.2793 1.70886C28.4097 1.83813 28.5713 1.9281 28.7461 1.97113C28.8086 1.98645 28.8726 1.99585 28.9375 1.9989L28.9897 2L28.9868 5H24.9648C23.8628 5 23 5.89301 23 6.995V19.005C23 20.107 23.8628 21 24.9639 21H26.9839V22.001C26.9834 22.2665 27.0889 22.5212 27.2769 22.7087C27.4648 22.8962 27.7197 23.001 27.9849 23C28.2505 23.001 28.5054 22.8962 28.6938 22.7087C28.8818 22.5212 28.9873 22.2665 28.9868 22.001V21H33.9951V22.001C33.9946 22.2665 34.0996 22.5212 34.2876 22.7087C34.4756 22.8962 34.7305 23.001 34.9961 23C35.2617 23.001 35.5166 22.8962 35.7046 22.7087C35.8926 22.5212 35.998 22.2665 35.998 22.001V21H38.0869C39.188 21 40 20.107 40 19.005V6.995C40 5.89301 39.1899 5 38.0869 5H33.9951L33.9917 2C34.5439 2 34.9917 1.55231 34.9917 1C34.9917 0.447693 34.5439 0 33.9917 0H28.9897ZM32.9932 2H29.9878V5H32.9932V2ZM34.9951 20H27.9868V21L27.9839 22.001V20H24.9648C24.4248 20 24 19.566 24 19.005V6.995C24 6.435 24.4258 6 24.9648 6H38.0869C38.6079 6 39 6.41498 39 6.995V19.005C39 19.583 38.6069 20 38.0869 20H34.9951Z" fill="#9AB0B9"/>
<path d="M31.4397 14.6202L29.6017 16.4022C29.2305 16.7571 28.6458 16.7571 28.2747 16.4022C28.0992 16.2343 28 16.002 28 15.7592C28 15.5164 28.0992 15.2841 28.2747 15.1162L30.1127 13.3342L28.2747 11.5522C28.0992 11.3843 28 11.152 28 10.9092C28 10.6664 28.0992 10.4341 28.2747 10.2662C28.6458 9.91127 29.2305 9.91127 29.6017 10.2662L31.4397 12.0482L33.2777 10.2662C33.6488 9.91127 34.2335 9.91127 34.6047 10.2662C34.7801 10.4341 34.8793 10.6664 34.8793 10.9092C34.8793 11.152 34.7801 11.3843 34.6047 11.5522L32.7667 13.3342L34.6047 15.1162C34.7801 15.2841 34.8793 15.5164 34.8793 15.7592C34.8793 16.002 34.7801 16.2343 34.6047 16.4022C34.2335 16.7571 33.6488 16.7571 33.2777 16.4022L31.4397 14.6202Z" fill="#9AB0B9"/>
</svg>
