<svg width="12" height="12" viewBox="0 0 12 12" fill="none" xmlns="http://www.w3.org/2000/svg">
<path fill-rule="evenodd" clip-rule="evenodd" d="M6 0.153992C2.69189 0.153992 0 2.77698 0 6C0 9.22302 2.69189 11.8459 6 11.8459C9.30811 11.8459 12 9.22302 12 6C12 2.77698 9.30811 0.153992 6 0.153992ZM6 1.07703C8.7959 1.07703 11.0527 3.276 11.0527 6C11.0527 8.724 8.7959 10.923 6 10.923C3.20361 10.923 0.946777 8.724 0.946777 6C0.946777 3.276 3.20361 1.07703 6 1.07703ZM5.52588 2.30701C5.53027 2.04932 5.74219 1.84363 6 1.84705C6.12402 1.84436 6.24365 1.89221 6.33252 1.97876C6.42139 2.06543 6.47217 2.18384 6.47412 2.30798V5.73596L9.24707 7.29297C9.30908 7.3269 9.36133 7.37451 9.40088 7.4314C9.43018 7.47363 9.45264 7.52087 9.4668 7.57153C9.49902 7.69031 9.48193 7.81714 9.41895 7.92297C9.28418 8.14404 8.99805 8.21838 8.77295 8.09094L5.7627 6.39893C5.62207 6.31995 5.52588 6.17004 5.52588 6V2.30701Z" fill="#2196F3"/>
</svg>
