<svg width="38" height="38" viewBox="0 0 38 38" fill="none" xmlns="http://www.w3.org/2000/svg">
<path fill-rule="evenodd" clip-rule="evenodd" d="M1 19C1 9.05888 9.05888 1 19 1C28.9411 1 37 9.05888 37 19C37 28.9411 28.9411 37 19 37C9.05888 37 1 28.9411 1 19Z" fill="#9B9B9B" stroke="#979797"/>
<path fill-rule="evenodd" clip-rule="evenodd" d="M28.4811 13.1188C27.773 13.4323 27.014 13.6448 26.2162 13.7404C27.0308 13.2523 27.6557 12.4799 27.9497 11.5593C27.1876 12.0112 26.3443 12.3393 25.447 12.5161C24.7281 11.7496 23.7038 11.2712 22.5703 11.2712C20.3935 11.2712 18.6297 13.0361 18.6297 15.2118C18.6297 15.5215 18.6638 15.8226 18.7308 16.1107C15.4551 15.9458 12.5513 14.3772 10.6076 11.9929C10.2681 12.575 10.0735 13.2523 10.0735 13.9739C10.0735 15.3415 10.7692 16.5469 11.827 17.255C11.1811 17.2334 10.573 17.0572 10.0416 16.7621V16.8107C10.0416 18.721 11.4 20.3134 13.2027 20.6756C12.873 20.7658 12.5243 20.8139 12.1648 20.8139C11.9108 20.8139 11.6643 20.7896 11.4232 20.7437C11.9248 22.3091 13.38 23.4491 15.1043 23.4804C13.7557 24.5372 12.0567 25.1669 10.2103 25.1669C9.89134 25.1669 9.57782 25.1485 9.26971 25.1118C11.0135 26.2307 13.0848 26.8831 15.3113 26.8831C22.56 26.8831 26.5248 20.8777 26.5248 15.6685C26.5248 15.4983 26.5211 15.328 26.514 15.1588C27.2832 14.6037 27.9519 13.9091 28.48 13.1188" fill="white"/>
</svg>
