<svg width="38" height="38" viewBox="0 0 38 38" fill="none" xmlns="http://www.w3.org/2000/svg">
<path fill-rule="evenodd" clip-rule="evenodd" d="M1 19C1 9.05888 9.05888 1 19 1C28.9411 1 37 9.05888 37 19C37 28.9411 28.9411 37 19 37C9.05888 37 1 28.9411 1 19Z" fill="#9B9B9B" stroke="#979797"/>
<path fill-rule="evenodd" clip-rule="evenodd" d="M28.7893 23.3693C28.7649 23.318 28.7429 23.2766 28.7224 23.2415C28.3819 22.6278 27.7302 21.8741 26.7688 20.981L26.7483 20.9605L26.7385 20.9507L26.7278 20.941H26.718C26.2819 20.5239 26.0058 20.2444 25.8888 20.1019C25.6776 19.8288 25.6302 19.5522 25.7458 19.2727C25.8278 19.061 26.1346 18.6141 26.6668 17.9322C26.9463 17.5712 27.1683 17.281 27.3312 17.0629C28.5117 15.4937 29.0229 14.4912 28.8663 14.0551L28.8054 13.9527C28.7639 13.8917 28.659 13.8356 28.4883 13.7844C28.3176 13.7332 28.099 13.7244 27.8332 13.7585L24.8868 13.779C24.839 13.7624 24.7707 13.7634 24.6819 13.7839L24.5488 13.8151L24.4976 13.841L24.4566 13.8717C24.4224 13.8912 24.3849 13.9273 24.3444 13.979C24.3034 14.0298 24.2693 14.0898 24.2419 14.158C23.921 14.9829 23.5561 15.7498 23.1463 16.4585C22.8946 16.8819 22.6624 17.2488 22.4512 17.559C22.2395 17.8693 22.0624 18.098 21.9195 18.2444C21.7761 18.3917 21.6463 18.5093 21.5307 18.5976C21.4137 18.6863 21.3258 18.7244 21.2649 18.7098C21.2034 18.6961 21.1454 18.6824 21.0907 18.6693C20.9951 18.6083 20.9185 18.5249 20.8615 18.419C20.8029 18.3137 20.7639 18.18 20.7429 18.02C20.7234 17.859 20.7107 17.7215 20.7068 17.6054C20.7034 17.4898 20.7049 17.3254 20.7117 17.1141C20.7185 16.9029 20.7224 16.7595 20.7224 16.6849C20.7224 16.4254 20.7273 16.1434 20.7371 15.841C20.7468 15.5366 20.7566 15.2966 20.7629 15.119C20.7698 14.9419 20.7727 14.7546 20.7727 14.5561C20.7727 14.3585 20.761 14.2034 20.7371 14.0907C20.7137 13.9785 20.6776 13.8693 20.6298 13.7629C20.5819 13.6576 20.5127 13.5756 20.42 13.518C20.3283 13.4595 20.2141 13.4137 20.0785 13.3795C19.7161 13.2976 19.2556 13.2537 18.6966 13.2463C17.4283 13.2327 16.6127 13.3146 16.2507 13.4922C16.1073 13.5663 15.9776 13.6688 15.8619 13.798C15.739 13.9483 15.7219 14.0307 15.8102 14.0439C16.22 14.1058 16.5093 14.2527 16.6805 14.4844L16.7415 14.6073C16.7893 14.6951 16.8371 14.8527 16.8844 15.0776C16.9322 15.3019 16.9624 15.5507 16.9761 15.8239C17.0102 16.3215 17.0102 16.7478 16.9761 17.1029C16.9429 17.4576 16.9102 17.7337 16.8795 17.9312C16.8488 18.1293 16.8029 18.2893 16.7415 18.4127C16.6805 18.5346 16.639 18.6098 16.618 18.6371C16.5985 18.6649 16.581 18.681 16.5673 18.6883C16.4785 18.7224 16.3868 18.74 16.2907 18.74C16.1956 18.74 16.0795 18.6922 15.9424 18.5966C15.8068 18.501 15.6644 18.3698 15.518 18.2024C15.3717 18.0356 15.2058 17.8024 15.0219 17.5015C14.8376 17.201 14.6463 16.8468 14.4488 16.4371L14.2849 16.1405C14.1824 15.9502 14.0424 15.6722 13.8654 15.3063C13.6878 14.9419 13.5312 14.5893 13.3946 14.2478C13.341 14.1049 13.258 13.9956 13.1488 13.921L13.0985 13.8898C13.0644 13.8629 13.0098 13.8337 12.9346 13.8019C12.86 13.7717 12.7819 13.7498 12.7005 13.7361L9.89658 13.7571C9.61024 13.7571 9.41609 13.8219 9.31365 13.9512L9.27268 14.0132C9.25365 14.0473 9.2439 14.1024 9.2439 14.1771C9.2439 14.2527 9.26341 14.3444 9.30536 14.4537C9.71512 15.4146 10.159 16.3424 10.6405 17.2356C11.1215 18.1298 11.539 18.8493 11.8932 19.3946C12.2493 19.94 12.6102 20.4546 12.978 20.9385C13.3468 21.4229 13.5907 21.7337 13.7098 21.8702C13.8293 22.0068 13.9234 22.1083 13.9912 22.1766L14.2473 22.4224C14.4112 22.5863 14.6512 22.7824 14.9693 23.0102C15.2863 23.2395 15.6376 23.4639 16.0229 23.6858C16.4083 23.9073 16.8561 24.0883 17.3683 24.2283C17.8795 24.3673 18.378 24.4234 18.8619 24.3961H20.0385C20.2766 24.3766 20.458 24.3005 20.58 24.1717L20.621 24.1205C20.6488 24.0785 20.6746 24.0156 20.698 23.9302C20.7224 23.8454 20.7341 23.7512 20.7341 23.6488C20.7273 23.3561 20.7488 23.0917 20.8005 22.8561C20.8512 22.6219 20.9093 22.4444 20.9746 22.3244C21.0395 22.2049 21.1122 22.1049 21.1941 22.0229C21.2761 21.941 21.3341 21.8912 21.3688 21.8746C21.4029 21.8571 21.4293 21.8454 21.4502 21.8385C21.6141 21.7839 21.8063 21.8371 22.0283 21.9971C22.2498 22.158 22.4576 22.3551 22.6527 22.5907C22.8468 22.8258 23.0805 23.0902 23.3527 23.3834C23.6258 23.6761 23.8649 23.8941 24.0688 24.0371L24.2737 24.1605C24.4102 24.2424 24.5873 24.3176 24.8054 24.3849C25.0239 24.4541 25.2151 24.4712 25.3785 24.4371L27.998 24.3956C28.2566 24.3956 28.458 24.3532 28.601 24.2678C28.7439 24.1824 28.8288 24.0888 28.8561 23.9868C28.8839 23.8844 28.8854 23.7688 28.861 23.6385C28.8366 23.5093 28.8132 23.419 28.7902 23.3673L28.7893 23.3693Z" fill="white"/>
</svg>
