<svg width="125" height="42" viewBox="0 0 125 42" fill="none" xmlns="http://www.w3.org/2000/svg">
<path fill-rule="evenodd" clip-rule="evenodd" d="M0 5C0 2.23858 2.23858 0 5 0H120C122.761 0 125 2.23858 125 5V37C125 39.7614 122.761 42 120 42H5C2.23858 42 0 39.7614 0 37V5Z" fill="#1E292D"/>
<path d="M24.0015 15.1483C24.0015 15.1483 15.4975 10.4094 14.9981 10.131C14.4978 9.85261 14 10.0215 14 10.6034V20.7199V31.042C14 31.4776 14.3557 31.6666 14.7903 31.4249C15.2241 31.1833 24.0015 26.2915 24.0015 26.2915L25.79 25.2953C26.7495 24.7609 28.6685 23.6921 28.6685 23.6921C28.6685 23.6921 32.6284 21.4849 33.1553 21.1923C33.6813 20.8988 33.6306 20.4966 33.1868 20.265C32.7422 20.0343 28.6685 17.7485 28.6685 17.7485L24.0015 15.1483Z" fill="white"/>
<path d="M48.4492 14.9697C48.3701 15.6465 48.1196 16.1694 47.6978 16.5386C47.2788 16.9048 46.7207 17.0879 46.0234 17.0879C45.2676 17.0879 44.6611 16.8169 44.2041 16.2749C43.75 15.7329 43.5229 15.0078 43.5229 14.0996V13.4844C43.5229 12.8896 43.6284 12.3667 43.8394 11.9155C44.0532 11.4644 44.355 11.1187 44.7446 10.8784C45.1343 10.6353 45.5854 10.5137 46.0981 10.5137C46.7778 10.5137 47.3228 10.7041 47.7329 11.085C48.1431 11.4629 48.3818 11.9873 48.4492 12.6582H47.6011C47.5278 12.1484 47.3682 11.7793 47.1221 11.5508C46.8789 11.3223 46.5376 11.208 46.0981 11.208C45.5591 11.208 45.1357 11.4072 44.8281 11.8057C44.5234 12.2041 44.3711 12.771 44.3711 13.5063V14.126C44.3711 14.8203 44.5161 15.3726 44.8062 15.7827C45.0962 16.1929 45.502 16.3979 46.0234 16.3979C46.4922 16.3979 46.8511 16.2925 47.1001 16.0815C47.3521 15.8677 47.519 15.4971 47.6011 14.9697H48.4492ZM50.9585 14.9741H50.3652V17H49.5479V12.2451H50.3652V14.2578H50.897L52.4966 12.2451H53.481L51.6001 14.5303L53.6392 17H52.6064L50.9585 14.9741ZM57.2734 17C57.2266 16.9062 57.1885 16.7393 57.1592 16.499C56.7812 16.8916 56.3301 17.0879 55.8057 17.0879C55.3369 17.0879 54.9517 16.9561 54.6499 16.6924C54.3511 16.4258 54.2017 16.0889 54.2017 15.6816C54.2017 15.1865 54.3892 14.8027 54.7642 14.5303C55.1421 14.2549 55.6724 14.1172 56.355 14.1172H57.146V13.7437C57.146 13.4595 57.061 13.2339 56.8911 13.0669C56.7212 12.897 56.4707 12.812 56.1396 12.812C55.8496 12.812 55.6064 12.8853 55.4102 13.0317C55.2139 13.1782 55.1157 13.3555 55.1157 13.5635H54.2983C54.2983 13.3262 54.3818 13.0977 54.5488 12.8779C54.7188 12.6553 54.9473 12.4795 55.2344 12.3506C55.5244 12.2217 55.8423 12.1572 56.188 12.1572C56.7358 12.1572 57.165 12.2949 57.4756 12.5703C57.7861 12.8428 57.9473 13.2192 57.959 13.6997V15.8882C57.959 16.3247 58.0146 16.6719 58.126 16.9297V17H57.2734ZM55.9243 16.3804C56.1792 16.3804 56.4209 16.3145 56.6494 16.1826C56.8779 16.0508 57.0435 15.8794 57.146 15.6685V14.6929H56.5088C55.5127 14.6929 55.0146 14.9844 55.0146 15.5674C55.0146 15.8223 55.0996 16.0215 55.2695 16.165C55.4395 16.3086 55.6577 16.3804 55.9243 16.3804ZM62.8237 17H62.0063V15.2773C61.6489 15.3711 61.2827 15.418 60.9077 15.418C60.313 15.418 59.8589 15.2656 59.5454 14.9609C59.2349 14.6563 59.0767 14.2227 59.0708 13.6602V12.2407H59.8838V13.6865C59.8984 14.3955 60.2397 14.75 60.9077 14.75C61.2827 14.75 61.6489 14.7031 62.0063 14.6094V12.2451H62.8237V17ZM67.0645 17C67.0176 16.9062 66.9795 16.7393 66.9502 16.499C66.5723 16.8916 66.1211 17.0879 65.5967 17.0879C65.1279 17.0879 64.7427 16.9561 64.4409 16.6924C64.1421 16.4258 63.9927 16.0889 63.9927 15.6816C63.9927 15.1865 64.1802 14.8027 64.5552 14.5303C64.9331 14.2549 65.4634 14.1172 66.146 14.1172H66.937V13.7437C66.937 13.4595 66.8521 13.2339 66.6821 13.0669C66.5122 12.897 66.2617 12.812 65.9307 12.812C65.6406 12.812 65.3975 12.8853 65.2012 13.0317C65.0049 13.1782 64.9067 13.3555 64.9067 13.5635H64.0894C64.0894 13.3262 64.1729 13.0977 64.3398 12.8779C64.5098 12.6553 64.7383 12.4795 65.0254 12.3506C65.3154 12.2217 65.6333 12.1572 65.979 12.1572C66.5269 12.1572 66.9561 12.2949 67.2666 12.5703C67.5771 12.8428 67.7383 13.2192 67.75 13.6997V15.8882C67.75 16.3247 67.8057 16.6719 67.917 16.9297V17H67.0645ZM65.7153 16.3804C65.9702 16.3804 66.2119 16.3145 66.4404 16.1826C66.6689 16.0508 66.8345 15.8794 66.937 15.6685V14.6929H66.2998C65.3037 14.6929 64.8057 14.9844 64.8057 15.5674C64.8057 15.8223 64.8906 16.0215 65.0605 16.165C65.2305 16.3086 65.4487 16.3804 65.7153 16.3804ZM72.1006 12.2451H72.9136V17H72.1006V13.5327L69.9077 17H69.0947V12.2451H69.9077V15.7168L72.1006 12.2451ZM72.3203 10.5137C72.3203 10.8682 72.1987 11.1538 71.9556 11.3706C71.7153 11.5845 71.3989 11.6914 71.0063 11.6914C70.6138 11.6914 70.2959 11.583 70.0527 11.3662C69.8096 11.1494 69.688 10.8652 69.688 10.5137H70.3516C70.3516 10.7187 70.4072 10.8799 70.5186 10.9971C70.6299 11.1113 70.7925 11.1685 71.0063 11.1685C71.2114 11.1685 71.3711 11.1113 71.4854 10.9971C71.6025 10.8828 71.6611 10.7217 71.6611 10.5137H72.3203ZM77.752 12.9043H76.1567V17H75.3438V12.9043H73.7793V12.2451H77.752V12.9043ZM80.1646 17.0879C79.52 17.0879 78.9956 16.877 78.5913 16.4551C78.187 16.0303 77.9849 15.4634 77.9849 14.7544V14.605C77.9849 14.1333 78.0742 13.7129 78.2529 13.3438C78.4346 12.9717 78.6865 12.6816 79.0088 12.4736C79.334 12.2627 79.6855 12.1572 80.0635 12.1572C80.6816 12.1572 81.1621 12.3608 81.5049 12.7681C81.8477 13.1753 82.019 13.7583 82.019 14.5171V14.8555H78.7979C78.8096 15.3242 78.9458 15.7036 79.2065 15.9937C79.4702 16.2808 79.8042 16.4243 80.2085 16.4243C80.4956 16.4243 80.7388 16.3657 80.938 16.2485C81.1372 16.1313 81.3115 15.9761 81.4609 15.7827L81.9575 16.1694C81.5591 16.7817 80.9614 17.0879 80.1646 17.0879ZM80.0635 12.8252C79.7354 12.8252 79.46 12.9453 79.2373 13.1855C79.0146 13.4229 78.877 13.7568 78.8242 14.1875H81.2061V14.126C81.1826 13.7129 81.0713 13.3936 80.8721 13.168C80.6729 12.9395 80.4033 12.8252 80.0635 12.8252ZM85.271 17V12.2451H87.1255C87.7583 12.2451 88.2432 12.3564 88.5801 12.5791C88.9199 12.7988 89.0898 13.1226 89.0898 13.5503C89.0898 13.77 89.0239 13.9692 88.8921 14.1479C88.7603 14.3237 88.5654 14.4585 88.3076 14.5522C88.5947 14.6196 88.8247 14.7515 88.9976 14.9478C89.1733 15.144 89.2612 15.3784 89.2612 15.6509C89.2612 16.0874 89.1001 16.4214 88.7778 16.6528C88.4585 16.8843 88.0059 17 87.4199 17H85.271ZM86.084 14.9126V16.3452H87.4287C87.7686 16.3452 88.022 16.2822 88.189 16.1562C88.3589 16.0303 88.4438 15.853 88.4438 15.6245C88.4438 15.1499 88.0952 14.9126 87.3979 14.9126H86.084ZM86.084 14.2622H87.1343C87.896 14.2622 88.2769 14.0396 88.2769 13.5942C88.2769 13.1489 87.9165 12.9189 87.1958 12.9043H86.084V14.2622Z" fill="white"/>
<path d="M50.5117 31.9219C50.1953 32.3008 49.748 32.5957 49.1699 32.8066C48.5918 33.0137 47.9512 33.1172 47.248 33.1172C46.5098 33.1172 45.8613 32.957 45.3027 32.6367C44.748 32.3125 44.3184 31.8438 44.0137 31.2305C43.7129 30.6172 43.5586 29.8965 43.5508 29.0684V28.4883C43.5508 27.6367 43.6934 26.9004 43.9785 26.2793C44.2676 25.6543 44.6816 25.1777 45.2207 24.8496C45.7637 24.5176 46.3984 24.3516 47.125 24.3516C48.1367 24.3516 48.9277 24.5938 49.498 25.0781C50.0684 25.5586 50.4062 26.2598 50.5117 27.1816H48.8008C48.7227 26.6934 48.5488 26.3359 48.2793 26.1094C48.0137 25.8828 47.6465 25.7695 47.1777 25.7695C46.5801 25.7695 46.125 25.9941 45.8125 26.4434C45.5 26.8926 45.3418 27.5605 45.3379 28.4473V28.9922C45.3379 29.8867 45.5078 30.5625 45.8477 31.0195C46.1875 31.4766 46.6855 31.7051 47.3418 31.7051C48.002 31.7051 48.4727 31.5645 48.7539 31.2832V29.8125H47.1543V28.5176H50.5117V31.9219ZM51.5664 29.7715C51.5664 29.1426 51.6875 28.582 51.9297 28.0898C52.1719 27.5977 52.5195 27.2168 52.9727 26.9473C53.4297 26.6777 53.959 26.543 54.5605 26.543C55.416 26.543 56.1133 26.8047 56.6523 27.3281C57.1953 27.8516 57.498 28.5625 57.5605 29.4609L57.5723 29.8945C57.5723 30.8672 57.3008 31.6484 56.7578 32.2383C56.2148 32.8242 55.4863 33.1172 54.5723 33.1172C53.6582 33.1172 52.9277 32.8242 52.3809 32.2383C51.8379 31.6523 51.5664 30.8555 51.5664 29.8477V29.7715ZM53.2598 29.8945C53.2598 30.4961 53.373 30.957 53.5996 31.2773C53.8262 31.5938 54.1504 31.752 54.5723 31.752C54.9824 31.752 55.3027 31.5957 55.5332 31.2832C55.7637 30.9668 55.8789 30.4629 55.8789 29.7715C55.8789 29.1816 55.7637 28.7246 55.5332 28.4004C55.3027 28.0762 54.9785 27.9141 54.5605 27.9141C54.1465 27.9141 53.8262 28.0762 53.5996 28.4004C53.373 28.7207 53.2598 29.2188 53.2598 29.8945ZM58.3516 29.7715C58.3516 29.1426 58.4727 28.582 58.7148 28.0898C58.957 27.5977 59.3047 27.2168 59.7578 26.9473C60.2148 26.6777 60.7441 26.543 61.3457 26.543C62.2012 26.543 62.8984 26.8047 63.4375 27.3281C63.9805 27.8516 64.2832 28.5625 64.3457 29.4609L64.3574 29.8945C64.3574 30.8672 64.0859 31.6484 63.543 32.2383C63 32.8242 62.2715 33.1172 61.3574 33.1172C60.4434 33.1172 59.7129 32.8242 59.166 32.2383C58.623 31.6523 58.3516 30.8555 58.3516 29.8477V29.7715ZM60.0449 29.8945C60.0449 30.4961 60.1582 30.957 60.3848 31.2773C60.6113 31.5938 60.9355 31.752 61.3574 31.752C61.7676 31.752 62.0879 31.5957 62.3184 31.2832C62.5488 30.9668 62.6641 30.4629 62.6641 29.7715C62.6641 29.1816 62.5488 28.7246 62.3184 28.4004C62.0879 28.0762 61.7637 27.9141 61.3457 27.9141C60.9316 27.9141 60.6113 28.0762 60.3848 28.4004C60.1582 28.7207 60.0449 29.2188 60.0449 29.8945ZM65.1543 29.7832C65.1543 28.8105 65.3848 28.0273 65.8457 27.4336C66.3105 26.8398 66.9355 26.543 67.7207 26.543C68.416 26.543 68.957 26.7812 69.3438 27.2578L69.4141 26.6602H70.9492V32.7891C70.9492 33.3438 70.8223 33.8262 70.5684 34.2363C70.3184 34.6465 69.9648 34.959 69.5078 35.1738C69.0508 35.3887 68.5156 35.4961 67.9023 35.4961C67.4375 35.4961 66.9844 35.4023 66.543 35.2148C66.1016 35.0312 65.7676 34.793 65.541 34.5L66.291 33.4688C66.7129 33.9414 67.2246 34.1777 67.8262 34.1777C68.2754 34.1777 68.625 34.0566 68.875 33.8145C69.125 33.5762 69.25 33.2363 69.25 32.7949V32.4551C68.8594 32.8965 68.3457 33.1172 67.709 33.1172C66.9473 33.1172 66.3301 32.8203 65.8574 32.2266C65.3887 31.6289 65.1543 30.8379 65.1543 29.8535V29.7832ZM66.8477 29.9062C66.8477 30.4805 66.9629 30.9316 67.1934 31.2598C67.4238 31.584 67.7402 31.7461 68.1426 31.7461C68.6582 31.7461 69.0273 31.5527 69.25 31.166V28.5C69.0234 28.1133 68.6582 27.9199 68.1543 27.9199C67.748 27.9199 67.4277 28.0859 67.1934 28.418C66.9629 28.75 66.8477 29.2461 66.8477 29.9062ZM74.043 33H72.3438V24H74.043V33ZM78.3613 33.1172C77.4316 33.1172 76.6738 32.832 76.0879 32.2617C75.5059 31.6914 75.2148 30.9316 75.2148 29.9824V29.8184C75.2148 29.1816 75.3379 28.6133 75.584 28.1133C75.8301 27.6094 76.1777 27.2227 76.627 26.9531C77.0801 26.6797 77.5957 26.543 78.1738 26.543C79.041 26.543 79.7227 26.8164 80.2188 27.3633C80.7187 27.9102 80.9688 28.6855 80.9688 29.6895V30.3809H76.9316C76.9863 30.7949 77.1504 31.127 77.4238 31.377C77.7012 31.627 78.0508 31.752 78.4727 31.752C79.125 31.752 79.6348 31.5156 80.002 31.043L80.834 31.9746C80.5801 32.334 80.2363 32.6152 79.8027 32.8184C79.3691 33.0176 78.8887 33.1172 78.3613 33.1172ZM78.168 27.9141C77.832 27.9141 77.5586 28.0273 77.3477 28.2539C77.1406 28.4805 77.0078 28.8047 76.9492 29.2266H79.3047V29.0918C79.2969 28.7168 79.1953 28.4277 79 28.2246C78.8047 28.0176 78.5273 27.9141 78.168 27.9141ZM86.793 29.9941V33H85.0352V24.4688H88.3633C89.0039 24.4688 89.5664 24.5859 90.0508 24.8203C90.5391 25.0547 90.9141 25.3887 91.1758 25.8223C91.4375 26.252 91.5684 26.7422 91.5684 27.293C91.5684 28.1289 91.2812 28.7891 90.707 29.2734C90.1367 29.7539 89.3457 29.9941 88.334 29.9941H86.793ZM86.793 28.5703H88.3633C88.8281 28.5703 89.1816 28.4609 89.4238 28.2422C89.6699 28.0234 89.793 27.7109 89.793 27.3047C89.793 26.8867 89.6699 26.5488 89.4238 26.291C89.1777 26.0332 88.8379 25.9004 88.4043 25.8926H86.793V28.5703ZM94.457 33H92.7578V24H94.457V33ZM99.5312 33C99.4531 32.8477 99.3965 32.6582 99.3613 32.4316C98.9512 32.8887 98.418 33.1172 97.7617 33.1172C97.1406 33.1172 96.625 32.9375 96.2148 32.5781C95.8086 32.2188 95.6055 31.7656 95.6055 31.2188C95.6055 30.5469 95.8535 30.0313 96.3496 29.6719C96.8496 29.3125 97.5703 29.1309 98.5117 29.127H99.291V28.7637C99.291 28.4707 99.2148 28.2363 99.0625 28.0605C98.9141 27.8848 98.6777 27.7969 98.3535 27.7969C98.0684 27.7969 97.8438 27.8652 97.6797 28.002C97.5195 28.1387 97.4395 28.3262 97.4395 28.5645H95.7461C95.7461 28.1973 95.8594 27.8574 96.0859 27.5449C96.3125 27.2324 96.6328 26.9883 97.0469 26.8125C97.4609 26.6328 97.9258 26.543 98.4414 26.543C99.2227 26.543 99.8418 26.7402 100.299 27.1348C100.76 27.5254 100.99 28.0762 100.99 28.7871V31.5352C100.994 32.1367 101.078 32.5918 101.242 32.9004V33H99.5312ZM98.1309 31.8223C98.3809 31.8223 98.6113 31.7676 98.8223 31.6582C99.0332 31.5449 99.1895 31.3945 99.291 31.207V30.1172H98.6582C97.8105 30.1172 97.3594 30.4102 97.3047 30.9961L97.2988 31.0957C97.2988 31.3066 97.373 31.4805 97.5215 31.6172C97.6699 31.7539 97.873 31.8223 98.1309 31.8223ZM104.564 30.6035L105.736 26.6602H107.553L105.004 33.9844L104.863 34.3184C104.484 35.1465 103.859 35.5605 102.988 35.5605C102.742 35.5605 102.492 35.5234 102.238 35.4492V34.166L102.496 34.1719C102.816 34.1719 103.055 34.123 103.211 34.0254C103.371 33.9277 103.496 33.7656 103.586 33.5391L103.785 33.0176L101.564 26.6602H103.387L104.564 30.6035Z" fill="white"/>
</svg>
