<svg width="125" height="42" viewBox="0 0 125 42" fill="none" xmlns="http://www.w3.org/2000/svg">
<path fill-rule="evenodd" clip-rule="evenodd" d="M0 5C0 2.23858 2.23858 0 5 0H120C122.761 0 125 2.23858 125 5V37C125 39.7614 122.761 42 120 42H5C2.23858 42 0 39.7614 0 37V5Z" fill="#1E292D"/>
<path d="M48.4492 14.9697C48.3701 15.6465 48.1196 16.1694 47.6978 16.5386C47.2788 16.9048 46.7207 17.0879 46.0234 17.0879C45.2676 17.0879 44.6611 16.8169 44.2041 16.2749C43.75 15.7329 43.5229 15.0078 43.5229 14.0996V13.4844C43.5229 12.8896 43.6284 12.3667 43.8394 11.9155C44.0532 11.4644 44.355 11.1187 44.7446 10.8784C45.1343 10.6353 45.5854 10.5137 46.0981 10.5137C46.7778 10.5137 47.3228 10.7041 47.7329 11.085C48.1431 11.4629 48.3818 11.9873 48.4492 12.6582H47.6011C47.5278 12.1484 47.3682 11.7793 47.1221 11.5508C46.8789 11.3223 46.5376 11.208 46.0981 11.208C45.5591 11.208 45.1357 11.4072 44.8281 11.8057C44.5234 12.2041 44.3711 12.771 44.3711 13.5063V14.126C44.3711 14.8203 44.5161 15.3726 44.8062 15.7827C45.0962 16.1929 45.502 16.3979 46.0234 16.3979C46.4922 16.3979 46.8511 16.2925 47.1001 16.0815C47.3521 15.8677 47.519 15.4971 47.6011 14.9697H48.4492ZM50.9585 14.9741H50.3652V17H49.5479V12.2451H50.3652V14.2578H50.897L52.4966 12.2451H53.481L51.6001 14.5303L53.6392 17H52.6064L50.9585 14.9741ZM57.2734 17C57.2266 16.9062 57.1885 16.7393 57.1592 16.499C56.7812 16.8916 56.3301 17.0879 55.8057 17.0879C55.3369 17.0879 54.9517 16.9561 54.6499 16.6924C54.3511 16.4258 54.2017 16.0889 54.2017 15.6816C54.2017 15.1865 54.3892 14.8027 54.7642 14.5303C55.1421 14.2549 55.6724 14.1172 56.355 14.1172H57.146V13.7437C57.146 13.4595 57.061 13.2339 56.8911 13.0669C56.7212 12.897 56.4707 12.812 56.1396 12.812C55.8496 12.812 55.6064 12.8853 55.4102 13.0317C55.2139 13.1782 55.1157 13.3555 55.1157 13.5635H54.2983C54.2983 13.3262 54.3818 13.0977 54.5488 12.8779C54.7188 12.6553 54.9473 12.4795 55.2344 12.3506C55.5244 12.2217 55.8423 12.1572 56.188 12.1572C56.7358 12.1572 57.165 12.2949 57.4756 12.5703C57.7861 12.8428 57.9473 13.2192 57.959 13.6997V15.8882C57.959 16.3247 58.0146 16.6719 58.126 16.9297V17H57.2734ZM55.9243 16.3804C56.1792 16.3804 56.4209 16.3145 56.6494 16.1826C56.8779 16.0508 57.0435 15.8794 57.146 15.6685V14.6929H56.5088C55.5127 14.6929 55.0146 14.9844 55.0146 15.5674C55.0146 15.8223 55.0996 16.0215 55.2695 16.165C55.4395 16.3086 55.6577 16.3804 55.9243 16.3804ZM62.8237 17H62.0063V15.2773C61.6489 15.3711 61.2827 15.418 60.9077 15.418C60.313 15.418 59.8589 15.2656 59.5454 14.9609C59.2349 14.6563 59.0767 14.2227 59.0708 13.6602V12.2407H59.8838V13.6865C59.8984 14.3955 60.2397 14.75 60.9077 14.75C61.2827 14.75 61.6489 14.7031 62.0063 14.6094V12.2451H62.8237V17ZM67.0645 17C67.0176 16.9062 66.9795 16.7393 66.9502 16.499C66.5723 16.8916 66.1211 17.0879 65.5967 17.0879C65.1279 17.0879 64.7427 16.9561 64.4409 16.6924C64.1421 16.4258 63.9927 16.0889 63.9927 15.6816C63.9927 15.1865 64.1802 14.8027 64.5552 14.5303C64.9331 14.2549 65.4634 14.1172 66.146 14.1172H66.937V13.7437C66.937 13.4595 66.8521 13.2339 66.6821 13.0669C66.5122 12.897 66.2617 12.812 65.9307 12.812C65.6406 12.812 65.3975 12.8853 65.2012 13.0317C65.0049 13.1782 64.9067 13.3555 64.9067 13.5635H64.0894C64.0894 13.3262 64.1729 13.0977 64.3398 12.8779C64.5098 12.6553 64.7383 12.4795 65.0254 12.3506C65.3154 12.2217 65.6333 12.1572 65.979 12.1572C66.5269 12.1572 66.9561 12.2949 67.2666 12.5703C67.5771 12.8428 67.7383 13.2192 67.75 13.6997V15.8882C67.75 16.3247 67.8057 16.6719 67.917 16.9297V17H67.0645ZM65.7153 16.3804C65.9702 16.3804 66.2119 16.3145 66.4404 16.1826C66.6689 16.0508 66.8345 15.8794 66.937 15.6685V14.6929H66.2998C65.3037 14.6929 64.8057 14.9844 64.8057 15.5674C64.8057 15.8223 64.8906 16.0215 65.0605 16.165C65.2305 16.3086 65.4487 16.3804 65.7153 16.3804ZM72.1006 12.2451H72.9136V17H72.1006V13.5327L69.9077 17H69.0947V12.2451H69.9077V15.7168L72.1006 12.2451ZM72.3203 10.5137C72.3203 10.8682 72.1987 11.1538 71.9556 11.3706C71.7153 11.5845 71.3989 11.6914 71.0063 11.6914C70.6138 11.6914 70.2959 11.583 70.0527 11.3662C69.8096 11.1494 69.688 10.8652 69.688 10.5137H70.3516C70.3516 10.7187 70.4072 10.8799 70.5186 10.9971C70.6299 11.1113 70.7925 11.1685 71.0063 11.1685C71.2114 11.1685 71.3711 11.1113 71.4854 10.9971C71.6025 10.8828 71.6611 10.7217 71.6611 10.5137H72.3203ZM77.752 12.9043H76.1567V17H75.3438V12.9043H73.7793V12.2451H77.752V12.9043ZM80.1646 17.0879C79.52 17.0879 78.9956 16.877 78.5913 16.4551C78.187 16.0303 77.9849 15.4634 77.9849 14.7544V14.605C77.9849 14.1333 78.0742 13.7129 78.2529 13.3438C78.4346 12.9717 78.6865 12.6816 79.0088 12.4736C79.334 12.2627 79.6855 12.1572 80.0635 12.1572C80.6816 12.1572 81.1621 12.3608 81.5049 12.7681C81.8477 13.1753 82.019 13.7583 82.019 14.5171V14.8555H78.7979C78.8096 15.3242 78.9458 15.7036 79.2065 15.9937C79.4702 16.2808 79.8042 16.4243 80.2085 16.4243C80.4956 16.4243 80.7388 16.3657 80.938 16.2485C81.1372 16.1313 81.3115 15.9761 81.4609 15.7827L81.9575 16.1694C81.5591 16.7817 80.9614 17.0879 80.1646 17.0879ZM80.0635 12.8252C79.7354 12.8252 79.46 12.9453 79.2373 13.1855C79.0146 13.4229 78.877 13.7568 78.8242 14.1875H81.2061V14.126C81.1826 13.7129 81.0713 13.3936 80.8721 13.168C80.6729 12.9395 80.4033 12.8252 80.0635 12.8252ZM85.271 17V12.2451H87.1255C87.7583 12.2451 88.2432 12.3564 88.5801 12.5791C88.9199 12.7988 89.0898 13.1226 89.0898 13.5503C89.0898 13.77 89.0239 13.9692 88.8921 14.1479C88.7603 14.3237 88.5654 14.4585 88.3076 14.5522C88.5947 14.6196 88.8247 14.7515 88.9976 14.9478C89.1733 15.144 89.2612 15.3784 89.2612 15.6509C89.2612 16.0874 89.1001 16.4214 88.7778 16.6528C88.4585 16.8843 88.0059 17 87.4199 17H85.271ZM86.084 14.9126V16.3452H87.4287C87.7686 16.3452 88.022 16.2822 88.189 16.1562C88.3589 16.0303 88.4438 15.853 88.4438 15.6245C88.4438 15.1499 88.0952 14.9126 87.3979 14.9126H86.084ZM86.084 14.2622H87.1343C87.896 14.2622 88.2769 14.0396 88.2769 13.5942C88.2769 13.1489 87.9165 12.9189 87.1958 12.9043H86.084V14.2622Z" fill="white"/>
<path d="M48.5781 31.2422H45.4961L44.9102 33H43.041L46.2168 24.4688H47.8457L51.0391 33H49.1699L48.5781 31.2422ZM45.9707 29.8184H48.1035L47.0312 26.625L45.9707 29.8184ZM57.1504 29.8887C57.1504 30.8652 56.9277 31.6484 56.4824 32.2383C56.041 32.8242 55.4434 33.1172 54.6895 33.1172C54.0488 33.1172 53.5313 32.8945 53.1367 32.4492V35.4375H51.4434V26.6602H53.0137L53.0723 27.2812C53.4824 26.7891 54.0176 26.543 54.6777 26.543C55.459 26.543 56.0664 26.832 56.5 27.4102C56.9336 27.9883 57.1504 28.7852 57.1504 29.8008V29.8887ZM55.457 29.7656C55.457 29.1758 55.3516 28.7207 55.1406 28.4004C54.9336 28.0801 54.6309 27.9199 54.2324 27.9199C53.7012 27.9199 53.3359 28.123 53.1367 28.5293V31.125C53.3438 31.543 53.7129 31.752 54.2441 31.752C55.0527 31.752 55.457 31.0898 55.457 29.7656ZM63.9121 29.8887C63.9121 30.8652 63.6895 31.6484 63.2441 32.2383C62.8027 32.8242 62.2051 33.1172 61.4512 33.1172C60.8105 33.1172 60.293 32.8945 59.8984 32.4492V35.4375H58.2051V26.6602H59.7754L59.834 27.2812C60.2441 26.7891 60.7793 26.543 61.4395 26.543C62.2207 26.543 62.8281 26.832 63.2617 27.4102C63.6953 27.9883 63.9121 28.7852 63.9121 29.8008V29.8887ZM62.2188 29.7656C62.2188 29.1758 62.1133 28.7207 61.9023 28.4004C61.6953 28.0801 61.3926 27.9199 60.9941 27.9199C60.4629 27.9199 60.0977 28.123 59.8984 28.5293V31.125C60.1055 31.543 60.4746 31.752 61.0059 31.752C61.8145 31.752 62.2188 31.0898 62.2188 29.7656ZM72.4902 30.7617C72.4902 30.4297 72.373 30.1758 72.1387 30C71.9043 29.8203 71.4824 29.6328 70.873 29.4375C70.2637 29.2383 69.7812 29.043 69.4258 28.8516C68.457 28.3281 67.9727 27.623 67.9727 26.7363C67.9727 26.2754 68.1016 25.8652 68.3594 25.5059C68.6211 25.1426 68.9941 24.8594 69.4785 24.6562C69.9668 24.4531 70.5137 24.3516 71.1191 24.3516C71.7285 24.3516 72.2715 24.4629 72.748 24.6855C73.2246 24.9043 73.5938 25.2148 73.8555 25.6172C74.1211 26.0195 74.2539 26.4766 74.2539 26.9883H72.4961C72.4961 26.5977 72.373 26.2949 72.127 26.0801C71.8809 25.8613 71.5352 25.752 71.0898 25.752C70.6602 25.752 70.3262 25.8437 70.0879 26.0273C69.8496 26.207 69.7305 26.4453 69.7305 26.7422C69.7305 27.0195 69.8691 27.252 70.1465 27.4395C70.4277 27.627 70.8398 27.8027 71.3828 27.9668C72.3828 28.2676 73.1113 28.6406 73.5684 29.0859C74.0254 29.5312 74.2539 30.0859 74.2539 30.75C74.2539 31.4883 73.9746 32.0684 73.416 32.4902C72.8574 32.9082 72.1055 33.1172 71.1602 33.1172C70.5039 33.1172 69.9062 32.998 69.3672 32.7598C68.8281 32.5176 68.416 32.1875 68.1309 31.7695C67.8496 31.3516 67.709 30.8672 67.709 30.3164H69.4727C69.4727 31.2578 70.0352 31.7285 71.1602 31.7285C71.5781 31.7285 71.9043 31.6445 72.1387 31.4766C72.373 31.3047 72.4902 31.0664 72.4902 30.7617ZM77.3652 25.1016V26.6602H78.4492V27.9023H77.3652V31.0664C77.3652 31.3008 77.4102 31.4687 77.5 31.5703C77.5898 31.6719 77.7617 31.7227 78.0156 31.7227C78.2031 31.7227 78.3691 31.709 78.5137 31.6816V32.9648C78.1816 33.0664 77.8398 33.1172 77.4883 33.1172C76.3008 33.1172 75.6953 32.5176 75.6719 31.3184V27.9023H74.7461V26.6602H75.6719V25.1016H77.3652ZM78.9531 29.7715C78.9531 29.1426 79.0742 28.582 79.3164 28.0898C79.5586 27.5977 79.9063 27.2168 80.3594 26.9473C80.8164 26.6777 81.3457 26.543 81.9473 26.543C82.8027 26.543 83.5 26.8047 84.0391 27.3281C84.582 27.8516 84.8848 28.5625 84.9473 29.4609L84.959 29.8945C84.959 30.8672 84.6875 31.6484 84.1445 32.2383C83.6016 32.8242 82.873 33.1172 81.959 33.1172C81.0449 33.1172 80.3145 32.8242 79.7676 32.2383C79.2246 31.6523 78.9531 30.8555 78.9531 29.8477V29.7715ZM80.6465 29.8945C80.6465 30.4961 80.7598 30.957 80.9863 31.2773C81.2129 31.5938 81.5371 31.752 81.959 31.752C82.3691 31.752 82.6895 31.5957 82.9199 31.2832C83.1504 30.9668 83.2656 30.4629 83.2656 29.7715C83.2656 29.1816 83.1504 28.7246 82.9199 28.4004C82.6895 28.0762 82.3652 27.9141 81.9473 27.9141C81.5332 27.9141 81.2129 28.0762 80.9863 28.4004C80.7598 28.7207 80.6465 29.2188 80.6465 29.8945ZM89.5645 28.248C89.334 28.2168 89.1309 28.2012 88.9551 28.2012C88.3145 28.2012 87.8945 28.418 87.6953 28.8516V33H86.002V26.6602H87.6016L87.6484 27.416C87.9883 26.834 88.459 26.543 89.0605 26.543C89.248 26.543 89.4238 26.5684 89.5879 26.6191L89.5645 28.248ZM93.1855 33.1172C92.2559 33.1172 91.498 32.832 90.9121 32.2617C90.3301 31.6914 90.0391 30.9316 90.0391 29.9824V29.8184C90.0391 29.1816 90.1621 28.6133 90.4082 28.1133C90.6543 27.6094 91.002 27.2227 91.4512 26.9531C91.9043 26.6797 92.4199 26.543 92.998 26.543C93.8652 26.543 94.5469 26.8164 95.043 27.3633C95.543 27.9102 95.793 28.6855 95.793 29.6895V30.3809H91.7559C91.8105 30.7949 91.9746 31.127 92.248 31.377C92.5254 31.627 92.875 31.752 93.2969 31.752C93.9492 31.752 94.459 31.5156 94.8262 31.043L95.6582 31.9746C95.4043 32.334 95.0605 32.6152 94.627 32.8184C94.1934 33.0176 93.7129 33.1172 93.1855 33.1172ZM92.9922 27.9141C92.6563 27.9141 92.3828 28.0273 92.1719 28.2539C91.9648 28.4805 91.832 28.8047 91.7734 29.2266H94.1289V29.0918C94.1211 28.7168 94.0195 28.4277 93.8242 28.2246C93.6289 28.0176 93.3516 27.9141 92.9922 27.9141Z" fill="white"/>
<path fill-rule="evenodd" clip-rule="evenodd" d="M29.2503 21.0643C29.2215 17.9607 31.8763 16.4507 31.9977 16.3805C30.4941 14.2591 28.1637 13.9692 27.3448 13.9461C25.3875 13.7468 23.489 15.0795 22.4919 15.0795C21.475 15.0795 19.9396 13.9654 18.2848 13.9981C16.1554 14.0299 14.1633 15.223 13.0708 17.0757C10.816 20.8534 12.4976 26.4048 14.6579 29.4583C15.7385 30.9548 17.0012 32.6236 18.654 32.5648C20.271 32.5013 20.875 31.5672 22.8263 31.5672C24.7597 31.5672 25.3268 32.5648 27.0125 32.5263C28.7478 32.5013 29.8404 31.0251 30.8832 29.5151C32.132 27.803 32.6335 26.113 32.6534 26.0264C32.6136 26.0138 29.2842 24.7841 29.2503 21.0643ZM26.0662 11.9375C26.9359 10.885 27.5309 9.4531 27.3657 8C26.107 8.05393 24.5328 8.84258 23.6263 9.87198C22.8243 10.7791 22.1079 12.2659 22.2929 13.6641C23.7069 13.7662 25.1587 12.9737 26.0662 11.9375Z" fill="white"/>
<path d="M29.2503 21.0643L29.6734 21.0604V21.0603L29.2503 21.0643ZM31.9977 16.3805L32.2097 16.7466L32.611 16.5142L32.3428 16.1358L31.9977 16.3805ZM27.3448 13.9461L27.3019 14.367L27.3174 14.3686L27.3329 14.369L27.3448 13.9461ZM18.2848 13.9981L18.2912 14.4211L18.2932 14.4211L18.2848 13.9981ZM13.0708 17.0757L13.4341 17.2925L13.4352 17.2906L13.0708 17.0757ZM14.6579 29.4583L14.3125 29.7027L14.3149 29.706L14.6579 29.4583ZM18.654 32.5648L18.669 32.9876L18.6706 32.9876L18.654 32.5648ZM27.0125 32.5263L27.0063 32.1033L27.0028 32.1033L27.0125 32.5263ZM30.8832 29.5151L30.5413 29.2657L30.5351 29.2747L30.8832 29.5151ZM32.6534 26.0264L33.0657 26.121L33.1532 25.7401L32.7803 25.6228L32.6534 26.0264ZM26.0662 11.9375L26.3846 12.2164L26.3923 12.207L26.0662 11.9375ZM27.3657 8L27.7861 7.95222L27.7415 7.56043L27.3476 7.57731L27.3657 8ZM23.6263 9.87198L23.9433 10.1522L23.9438 10.1516L23.6263 9.87198ZM22.2929 13.6641L21.8735 13.7196L21.9187 14.0613L22.2625 14.0861L22.2929 13.6641ZM29.6734 21.0603C29.6469 18.216 32.0893 16.8162 32.2097 16.7466L31.7857 16.0143C31.6632 16.0852 28.796 17.7053 28.8273 21.0682L29.6734 21.0603ZM32.3428 16.1358C30.7242 13.852 28.2246 13.5477 27.3567 13.5232L27.3329 14.369C28.1028 14.3907 30.264 14.6661 31.6525 16.6251L32.3428 16.1358ZM27.3877 13.5252C26.3076 13.4152 25.2665 13.7289 24.4131 14.0407C23.9603 14.2061 23.611 14.351 23.2561 14.475C22.9095 14.596 22.6633 14.6564 22.4919 14.6564V15.5026C22.8191 15.5026 23.1841 15.3964 23.5351 15.2738C23.8777 15.1541 24.3123 14.9783 24.7034 14.8354C25.5379 14.5306 26.4248 14.2777 27.3019 14.367L27.3877 13.5252ZM22.4919 14.6564C22.3071 14.6564 22.0725 14.6044 21.7717 14.5044C21.4707 14.4044 21.1504 14.2735 20.7787 14.1313C20.059 13.8562 19.1936 13.557 18.2765 13.5751L18.2932 14.4211C19.0309 14.4065 19.7606 14.648 20.4765 14.9217C20.8226 15.054 21.1802 15.1995 21.5048 15.3074C21.8296 15.4153 22.1683 15.5026 22.4919 15.5026V14.6564ZM18.2785 13.5751C15.9961 13.6091 13.871 14.8858 12.7063 16.8608L13.4352 17.2906C14.4557 15.5602 16.3147 14.4506 18.2912 14.4211L18.2785 13.5751ZM12.7075 16.8589C11.5093 18.8664 11.3731 21.3138 11.7925 23.6144C12.2123 25.9178 13.1973 28.1264 14.3125 29.7027L15.0033 29.214C13.9582 27.7367 13.0223 25.6428 12.6249 23.4627C12.227 21.2798 12.3775 19.0627 13.4341 17.2925L12.7075 16.8589ZM14.3149 29.706C14.8523 30.4502 15.4621 31.277 16.157 31.908C16.8534 32.5403 17.6857 33.0226 18.669 32.9876L18.639 32.142C17.9695 32.1658 17.3441 31.843 16.7258 31.2815C16.106 30.7187 15.5441 29.9629 15.0009 29.2106L14.3149 29.706ZM18.6706 32.9876C19.5648 32.9524 20.1879 32.6712 20.7734 32.4344C21.351 32.2008 21.9306 31.9903 22.8263 31.9903V31.1441C21.7706 31.1441 21.0725 31.4007 20.4561 31.65C19.8475 31.8961 19.3601 32.1137 18.6374 32.1421L18.6706 32.9876ZM22.8263 31.9903C23.7072 31.9903 24.2691 32.2128 24.8512 32.4524C25.4454 32.697 26.082 32.9707 27.0221 32.9493L27.0028 32.1033C26.2573 32.1204 25.7675 31.9145 25.1733 31.67C24.5671 31.4204 23.8787 31.1441 22.8263 31.1441V31.9903ZM27.0186 32.9493C28.0188 32.9349 28.8201 32.4981 29.4913 31.8914C30.1533 31.2929 30.7126 30.5066 31.2313 29.7556L30.5351 29.2747C30.011 30.0336 29.5026 30.7404 28.9238 31.2637C28.3541 31.7788 27.7415 32.0927 27.0063 32.1033L27.0186 32.9493ZM31.225 29.7645C32.5123 27.9995 33.035 26.255 33.0657 26.121L32.2411 25.9317C32.2418 25.9286 32.2136 26.0315 32.1449 26.2271C32.0787 26.4153 31.979 26.6782 31.8417 26.9912C31.5667 27.6183 31.1434 28.4405 30.5414 29.2658L31.225 29.7645ZM32.7803 25.6228C32.8076 25.6313 32.0233 25.3482 31.236 24.6242C30.46 23.9105 29.689 22.7781 29.6734 21.0604L28.8273 21.0681C28.8455 23.0703 29.7561 24.4127 30.6632 25.247C31.559 26.0709 32.4594 26.4089 32.5265 26.4299L32.7803 25.6228ZM26.3923 12.207C27.3143 11.0912 27.9675 9.5484 27.7861 7.95222L26.9453 8.04778C27.0943 9.35779 26.5574 10.6788 25.74 11.668L26.3923 12.207ZM27.3476 7.57731C25.9627 7.63664 24.2838 8.48516 23.3088 9.59238L23.9438 10.1516C24.7818 9.20001 26.2512 8.47121 27.3838 8.42269L27.3476 7.57731ZM23.3094 9.59175C22.4591 10.5534 21.6668 12.1581 21.8735 13.7196L22.7124 13.6086C22.5489 12.3737 23.1895 11.0048 23.9433 10.1522L23.3094 9.59175ZM22.2625 14.0861C23.8439 14.2002 25.4158 13.3223 26.3844 12.2163L25.7479 11.6588C24.9016 12.625 23.57 13.3321 22.3234 13.2421L22.2625 14.0861Z" fill="white" fill-opacity="0.16"/>
</svg>
