<svg width="14" height="14" viewBox="0 0 14 14" fill="none" xmlns="http://www.w3.org/2000/svg">
<path fill-rule="evenodd" clip-rule="evenodd" d="M13.8691 6.37114C13.9096 3.127 11.0248 0.119918 7.67424 0.00907834C7.61467 0.0173791 7.54045 0.0124963 7.46086 0.00712522C7.20256 -0.0104529 6.89055 -0.031449 6.86614 0.3936C6.84416 0.768112 7.28459 0.706344 7.57365 0.750045C11.0614 1.27592 12.6703 2.9019 13.1147 6.34648C13.1235 6.41557 13.1249 6.49248 13.1264 6.57036C13.1308 6.85063 13.1357 7.14531 13.498 7.15214C13.9023 7.15971 13.8871 6.83134 13.8735 6.5374C13.871 6.47978 13.8686 6.42339 13.8691 6.37114ZM10.9418 13.9449L11.0326 13.9649L11.04 13.9664C11.0947 13.9788 11.143 13.9895 11.1821 13.9998C12.2685 14.0105 13.5409 12.9844 13.9086 11.9661C14.2197 11.1055 13.6801 10.7007 13.1435 10.2984C13.0693 10.2427 12.995 10.1873 12.9233 10.1307C12.6513 9.9163 12.3681 9.71587 12.0824 9.51884L11.9028 9.39555L11.5644 9.16362C10.6508 8.53447 9.81487 8.48564 9.13322 9.4976C8.75041 10.0657 8.21477 10.0906 7.65422 9.84135C6.1093 9.15459 4.91692 8.09648 4.21819 6.55742C3.9091 5.87627 3.91301 5.26567 4.63664 4.78398C5.01897 4.5291 5.40471 4.22783 5.37395 3.67143C5.33342 2.9456 3.53655 0.520065 2.82658 0.264205C2.53264 0.158248 2.24016 0.165328 1.94133 0.263717C0.277268 0.812057 -0.412185 2.15434 0.247971 3.74321C2.21721 8.48369 5.68352 11.784 10.455 13.7981C10.6196 13.8675 10.7948 13.9117 10.9418 13.9449ZM12.1484 5.79033C12.1405 5.84819 12.143 5.91606 12.1454 5.98662C12.1532 6.20586 12.162 6.45 11.8652 6.49443C11.4404 6.55766 11.4223 6.26469 11.4057 5.98857C11.4013 5.92021 11.3969 5.85283 11.3866 5.79228C11.0322 3.69731 10.2822 2.92851 8.12785 2.45634C7.81047 2.38676 7.31682 2.43559 7.39885 1.95659C7.47697 1.4998 7.91985 1.65507 8.25529 1.69438C10.4076 1.94804 12.1659 3.77885 12.1484 5.79033ZM10.4687 5.77837C10.5121 5.67192 10.5165 5.53862 10.5116 5.40874C10.5278 4.43803 9.40862 3.31621 8.45354 3.3394C8.22942 3.34477 8.01018 3.36845 7.92766 3.60332C7.80412 3.9539 8.06389 4.0374 8.32854 4.07939C9.21281 4.21831 9.67766 4.72905 9.76555 5.59306C9.78996 5.82793 9.94133 6.01787 10.1723 5.99101C10.3363 5.97197 10.4238 5.88969 10.4687 5.77837Z" fill="#5A5A5A"/>
</svg>
