<svg width="125" height="42" viewBox="0 0 125 42" fill="none" xmlns="http://www.w3.org/2000/svg">
<path fill-rule="evenodd" clip-rule="evenodd" d="M0 5C0 2.23858 2.23858 0 5 0H120C122.761 0 125 2.23858 125 5V37C125 39.7614 122.761 42 120 42H5C2.23858 42 0 39.7614 0 37V5Z" fill="#1E292D"/>
<path fill-rule="evenodd" clip-rule="evenodd" d="M31.3076 11V20.2676H20.2307V12.8555L31.3076 11ZM19.3043 12.8535L11 13.894L11.0077 20.2676L19.3077 20.2241L19.3043 12.8535ZM19.3077 28.6084L19.3013 21.2437L11 21.1943L11.0006 27.5601L19.3077 28.6084ZM20.2307 28.6196L31.3053 30.4619L31.3076 21.1943H20.2307V28.6196Z" fill="white"/>
<path d="M50.4062 14.5391L51.5547 8.46875H53.3066L51.4141 17H49.6445L48.2559 11.293L46.8672 17H45.0977L43.2051 8.46875H44.957L46.1113 14.5273L47.5176 8.46875H49.0059L50.4062 14.5391ZM55.9375 17H54.2383V10.6602H55.9375V17ZM54.1387 9.01953C54.1387 8.76562 54.2227 8.55664 54.3906 8.39258C54.5625 8.22852 54.7949 8.14648 55.0879 8.14648C55.377 8.14648 55.6074 8.22852 55.7793 8.39258C55.9512 8.55664 56.0371 8.76562 56.0371 9.01953C56.0371 9.27734 55.9492 9.48828 55.7734 9.65234C55.6016 9.81641 55.373 9.89844 55.0879 9.89844C54.8027 9.89844 54.5723 9.81641 54.3965 9.65234C54.2246 9.48828 54.1387 9.27734 54.1387 9.01953ZM58.8965 10.6602L58.9492 11.3926C59.4023 10.8262 60.0098 10.543 60.7715 10.543C61.4434 10.543 61.9434 10.7402 62.2715 11.1348C62.5996 11.5293 62.7676 12.1191 62.7754 12.9043V17H61.082V12.9453C61.082 12.5859 61.0039 12.3262 60.8477 12.166C60.6914 12.002 60.4316 11.9199 60.0684 11.9199C59.5918 11.9199 59.2344 12.123 58.9961 12.5293V17H57.3027V10.6602H58.8965ZM63.8008 13.7832C63.8008 12.7949 64.0215 12.0078 64.4629 11.4219C64.9082 10.8359 65.5156 10.543 66.2852 10.543C66.9023 10.543 67.4121 10.7734 67.8145 11.2344V8H69.5137V17H67.9844L67.9023 16.3262C67.4805 16.8535 66.9375 17.1172 66.2734 17.1172C65.5273 17.1172 64.9277 16.8242 64.4746 16.2383C64.0254 15.6484 63.8008 14.8301 63.8008 13.7832ZM65.4941 13.9062C65.4941 14.5 65.5977 14.9551 65.8047 15.2715C66.0117 15.5879 66.3125 15.7461 66.707 15.7461C67.2305 15.7461 67.5996 15.5254 67.8145 15.084V12.582C67.6035 12.1406 67.2383 11.9199 66.7188 11.9199C65.9023 11.9199 65.4941 12.582 65.4941 13.9062ZM70.5625 13.7715C70.5625 13.1426 70.6836 12.582 70.9258 12.0898C71.168 11.5977 71.5156 11.2168 71.9688 10.9473C72.4258 10.6777 72.9551 10.543 73.5566 10.543C74.4121 10.543 75.1094 10.8047 75.6484 11.3281C76.1914 11.8516 76.4941 12.5625 76.5566 13.4609L76.5684 13.8945C76.5684 14.8672 76.2969 15.6484 75.7539 16.2383C75.2109 16.8242 74.4824 17.1172 73.5684 17.1172C72.6543 17.1172 71.9238 16.8242 71.377 16.2383C70.834 15.6523 70.5625 14.8555 70.5625 13.8477V13.7715ZM72.2559 13.8945C72.2559 14.4961 72.3691 14.957 72.5957 15.2773C72.8223 15.5938 73.1465 15.752 73.5684 15.752C73.9785 15.752 74.2988 15.5957 74.5293 15.2832C74.7598 14.9668 74.875 14.4629 74.875 13.7715C74.875 13.1816 74.7598 12.7246 74.5293 12.4004C74.2988 12.0762 73.9746 11.9141 73.5566 11.9141C73.1426 11.9141 72.8223 12.0762 72.5957 12.4004C72.3691 12.7207 72.2559 13.2188 72.2559 13.8945ZM83.125 14.6973L83.957 10.6602H85.5918L83.9746 17H82.5566L81.3555 13.0098L80.1543 17H78.7422L77.125 10.6602H78.7598L79.5859 14.6914L80.7461 10.6602H81.9707L83.125 14.6973ZM89.8691 15.248C89.8691 15.041 89.7656 14.8789 89.5586 14.7617C89.3555 14.6406 89.0273 14.5332 88.5742 14.4395C87.0664 14.123 86.3125 13.4824 86.3125 12.5176C86.3125 11.9551 86.5449 11.4863 87.0098 11.1113C87.4785 10.7324 88.0898 10.543 88.8438 10.543C89.6484 10.543 90.291 10.7324 90.7715 11.1113C91.2559 11.4902 91.498 11.9824 91.498 12.5879H89.8047C89.8047 12.3457 89.7266 12.1465 89.5703 11.9902C89.4141 11.8301 89.1699 11.75 88.8379 11.75C88.5527 11.75 88.332 11.8145 88.1758 11.9434C88.0195 12.0723 87.9414 12.2363 87.9414 12.4355C87.9414 12.623 88.0293 12.7754 88.2051 12.8926C88.3848 13.0059 88.6855 13.1055 89.1074 13.1914C89.5293 13.2734 89.8848 13.3672 90.1738 13.4727C91.0684 13.8008 91.5156 14.3691 91.5156 15.1777C91.5156 15.7559 91.2676 16.2246 90.7715 16.584C90.2754 16.9395 89.6348 17.1172 88.8496 17.1172C88.3184 17.1172 87.8457 17.0234 87.4316 16.8359C87.0215 16.6445 86.6992 16.3848 86.4648 16.0566C86.2305 15.7246 86.1133 15.3672 86.1133 14.9844H87.7188C87.7344 15.2852 87.8457 15.5156 88.0527 15.6758C88.2598 15.8359 88.5371 15.916 88.8848 15.916C89.209 15.916 89.4531 15.8555 89.6172 15.7344C89.7852 15.6094 89.8691 15.4473 89.8691 15.248ZM45.5195 28.9941V32H43.7617V23.4688H47.0898C47.7305 23.4688 48.293 23.5859 48.7773 23.8203C49.2656 24.0547 49.6406 24.3887 49.9023 24.8223C50.1641 25.252 50.2949 25.7422 50.2949 26.293C50.2949 27.1289 50.0078 27.7891 49.4336 28.2734C48.8633 28.7539 48.0723 28.9941 47.0605 28.9941H45.5195ZM45.5195 27.5703H47.0898C47.5547 27.5703 47.9082 27.4609 48.1504 27.2422C48.3965 27.0234 48.5195 26.7109 48.5195 26.3047C48.5195 25.8867 48.3965 25.5488 48.1504 25.291C47.9043 25.0332 47.5645 24.9004 47.1309 24.8926H45.5195V27.5703ZM53.0488 26.3516C53.498 25.8125 54.0625 25.543 54.7422 25.543C56.1172 25.543 56.8145 26.3418 56.834 27.9395V32H55.1406V27.9863C55.1406 27.623 55.0625 27.3555 54.9062 27.1836C54.75 27.0078 54.4902 26.9199 54.127 26.9199C53.6309 26.9199 53.2715 27.1113 53.0488 27.4941V32H51.3555V23H53.0488V26.3516ZM57.8477 28.7715C57.8477 28.1426 57.9687 27.582 58.2109 27.0898C58.4531 26.5977 58.8008 26.2168 59.2539 25.9473C59.7109 25.6777 60.2402 25.543 60.8418 25.543C61.6973 25.543 62.3945 25.8047 62.9336 26.3281C63.4766 26.8516 63.7793 27.5625 63.8418 28.4609L63.8535 28.8945C63.8535 29.8672 63.582 30.6484 63.0391 31.2383C62.4961 31.8242 61.7676 32.1172 60.8535 32.1172C59.9395 32.1172 59.209 31.8242 58.6621 31.2383C58.1191 30.6523 57.8477 29.8555 57.8477 28.8477V28.7715ZM59.541 28.8945C59.541 29.4961 59.6543 29.957 59.8809 30.2773C60.1074 30.5938 60.4316 30.752 60.8535 30.752C61.2637 30.752 61.584 30.5957 61.8145 30.2832C62.0449 29.9668 62.1602 29.4629 62.1602 28.7715C62.1602 28.1816 62.0449 27.7246 61.8145 27.4004C61.584 27.0762 61.2598 26.9141 60.8418 26.9141C60.4277 26.9141 60.1074 27.0762 59.8809 27.4004C59.6543 27.7207 59.541 28.2188 59.541 28.8945ZM66.4551 25.6602L66.5078 26.3926C66.9609 25.8262 67.5684 25.543 68.3301 25.543C69.002 25.543 69.502 25.7402 69.8301 26.1348C70.1582 26.5293 70.3262 27.1191 70.334 27.9043V32H68.6406V27.9453C68.6406 27.5859 68.5625 27.3262 68.4062 27.166C68.25 27.002 67.9902 26.9199 67.627 26.9199C67.1504 26.9199 66.793 27.123 66.5547 27.5293V32H64.8613V25.6602H66.4551ZM74.541 32.1172C73.6113 32.1172 72.8535 31.832 72.2676 31.2617C71.6855 30.6914 71.3945 29.9316 71.3945 28.9824V28.8184C71.3945 28.1816 71.5176 27.6133 71.7637 27.1133C72.0098 26.6094 72.3574 26.2227 72.8066 25.9531C73.2598 25.6797 73.7754 25.543 74.3535 25.543C75.2207 25.543 75.9023 25.8164 76.3984 26.3633C76.8984 26.9102 77.1484 27.6855 77.1484 28.6895V29.3809H73.1113C73.166 29.7949 73.3301 30.127 73.6035 30.377C73.8809 30.627 74.2305 30.752 74.6523 30.752C75.3047 30.752 75.8145 30.5156 76.1816 30.043L77.0137 30.9746C76.7598 31.334 76.416 31.6152 75.9824 31.8184C75.5488 32.0176 75.0684 32.1172 74.541 32.1172ZM74.3477 26.9141C74.0117 26.9141 73.7383 27.0273 73.5273 27.2539C73.3203 27.4805 73.1875 27.8047 73.1289 28.2266H75.4844V28.0918C75.4766 27.7168 75.375 27.4277 75.1797 27.2246C74.9844 27.0176 74.707 26.9141 74.3477 26.9141Z" fill="white"/>
</svg>
