<svg width="18" height="23" viewBox="0 0 18 23" fill="none" xmlns="http://www.w3.org/2000/svg">
<path fill-rule="evenodd" clip-rule="evenodd" d="M13.0511 0.0317383C13.0948 0.0620117 13.1209 0.108887 13.1282 0.160645C13.132 0.1875 13.1306 0.215332 13.124 0.243164C13.1176 0.270508 13.1058 0.297852 13.0887 0.322754L11.9493 1.99219C13.7608 2.84326 14.8383 4.11328 15 6H3C3.1615 4.11328 4.29095 2.84326 6.10223 1.99219L4.96301 0.322754C4.89526 0.223633 4.91217 0.0932617 5.00043 0.0317383C5.08887 -0.0297852 5.21533 0.000488281 5.28302 0.100098L6.46655 1.83447C7.24652 1.52441 8.11304 1.35156 9.02588 1.35156C9.93872 1.35156 10.8052 1.52441 11.5852 1.83447L12.7687 0.100098C12.8094 0.0400391 12.8714 0.00537109 12.9336 0.000488281C12.9748 -0.00244141 13.016 0.00732422 13.0511 0.0317383ZM3 17C3 17.6025 3.4939 18.0576 4.09088 18.0576H4.90912V21.3662C4.90912 22.1514 5.37091 23 6.13635 23C6.90198 23 7.36365 22.1514 7.36365 21.3662V18.0576H10.6364V21.3662C10.6364 22.1514 11.0982 23 11.8636 23C12.6293 23 13.0909 22.1514 13.0909 21.3662V18.0576H13.9091C14.5063 18.0576 15 17.6025 15 17V7H3V17ZM0 8.70557C0 7.93213 0.447754 7.30566 1 7.30566C1.55225 7.30566 2 7.93213 2 8.70557V14.1763C2 14.9497 1.55225 15.5767 1 15.5767C0.447754 15.5767 0 14.9497 0 14.1763V8.70557ZM16 8.70557C16 7.93213 16.4478 7.30566 16.9999 7.30566C17.5522 7.30566 18 7.93213 18 8.70557V14.1763C18 14.9497 17.5522 15.5767 16.9999 15.5767C16.4478 15.5767 16 14.9497 16 14.1763V8.70557ZM6.42395 4.62402C6.04718 4.62402 5.74164 4.31543 5.74164 3.93506C5.74164 3.55469 6.04718 3.24609 6.42395 3.24609C6.80109 3.24609 7.10645 3.55469 7.10645 3.93506C7.10645 4.31543 6.80109 4.62402 6.42395 4.62402ZM11.0306 3.93506C11.0306 4.31543 11.3362 4.62402 11.713 4.62402C12.0899 4.62402 12.3954 4.31543 12.3954 3.93506C12.3954 3.55469 12.0899 3.24609 11.713 3.24609C11.3362 3.24609 11.0306 3.55469 11.0306 3.93506Z" fill="white"/>
</svg>
